<svg width="325" height="75" viewBox="0 0 325 75" fill="none" xmlns="http://www.w3.org/2000/svg">
<rect width="325" height="75" rx="10" fill="#ED1C24"/>
<mask id="mask0_7049_1145" style="mask-type:alpha" maskUnits="userSpaceOnUse" x="0" y="0" width="325" height="75">
<rect width="325" height="75" rx="10" fill="#ffebecff"/>
</mask>
<g mask="url(#mask0_7049_1145)">
<path d="M101.713 94.4927C100.617 94.4674 99.5864 94.4282 98.6343 94.378L101.713 94.4927C115.602 94.8124 139.929 92.8875 146.364 82.7026C155.042 68.9669 144.737 52.1407 169.686 53.1709C194.636 54.201 232.06 68.6235 240.738 54.5444C249.416 40.4653 261.891 31.5371 278.705 36.0012C295.519 40.4653 297.688 51.1105 327.519 48.02C357.35 44.9294 400.199 86.8234 363.859 98.1553C345.49 103.883 322.33 104.99 307.995 106.472C300.997 107.196 287.203 108.818 280.329 107.32L247.031 100.062C246.453 99.9357 245.865 99.8612 245.274 99.8392L101.713 94.4927Z" fill="white" fill-opacity="0.15"/>
<path d="M-4.13635 51.2415C-4.47372 51.193 -4.80821 51.1471 -5.13985 51.1037C-15.3324 49.7693 -43.3346 34.6007 -44.6908 24.4111C-47.6607 2.09698 -50.4698 -23.6226 -50.9018 -42.4088C-51.8099 -81.8921 127.079 -81.8921 169.759 -51.2192C212.438 -20.5462 141.608 16.0003 112.096 15.674C82.5841 15.3476 69.4171 16.9792 65.7849 34.2735C62.1526 51.5678 25.3758 55.4835 -4.13635 51.2415Z" fill="white" fill-opacity="0.15"/>
</g>
</svg>
